<?xml version="1.0" standalone="no"?>
<!DOCTYPE svg PUBLIC "-//W3C//DTD SVG 20010904//EN"
 "http://www.w3.org/TR/2001/REC-SVG-20010904/DTD/svg10.dtd">
<svg version="1.0" xmlns="http://www.w3.org/2000/svg"
 width="512.000000pt" height="512.000000pt" viewBox="0 0 512.000000 512.000000"
 preserveAspectRatio="xMidYMid meet">

<g transform="translate(0.000000,512.000000) scale(0.100000,-0.100000)"
fill="#000000" stroke="none">
<path d="M2118 4301 c-31 -10 -72 -28 -91 -40 -36 -22 -106 -93 -124 -126 -10
-17 -14 -16 -54 18 -68 59 -137 81 -249 81 -126 0 -191 -25 -270 -103 -32 -31
-62 -65 -68 -75 -9 -18 -12 -17 -53 17 -23 20 -68 46 -98 58 -234 89 -486 -52
-530 -297 -26 -143 68 -623 185 -942 85 -232 265 -543 346 -599 23 -17 47 -23
83 -23 67 0 114 26 142 80 23 43 23 44 23 507 0 368 3 464 13 459 73 -31 125
-38 250 -34 117 3 138 6 188 29 31 15 76 47 100 72 l44 46 65 -32 c64 -32 65
-32 220 -32 146 0 158 1 210 26 30 14 67 38 83 52 l27 26 28 -26 c15 -14 52
-38 82 -52 52 -25 64 -26 210 -26 155 0 156 0 220 32 l65 32 44 -46 c24 -25
69 -57 100 -72 50 -23 71 -26 188 -29 125 -4 177 3 251 34 9 5 12 -91 12 -459
0 -463 0 -464 23 -507 28 -53 75 -80 141 -80 67 0 102 24 168 117 223 314 382
768 443 1263 22 182 -1 281 -91 380 -136 151 -384 171 -533 43 -41 -34 -44
-35 -53 -17 -6 10 -36 44 -68 75 -79 78 -144 103 -270 103 -112 0 -181 -22
-249 -81 -41 -34 -44 -35 -53 -17 -6 10 -36 44 -68 75 -67 67 -142 99 -246
106 -116 9 -215 -28 -301 -111 l-43 -40 -42 40 c-24 23 -59 50 -78 62 -89 52
-219 66 -322 33z m250 -178 c28 -17 59 -48 77 -77 l30 -49 0 -188 c0 -174 -2
-190 -21 -215 -47 -64 -63 -69 -214 -69 -151 0 -167 5 -214 69 -19 25 -21 41
-21 214 0 186 0 187 28 234 48 83 124 121 225 114 47 -3 75 -11 110 -33z m640
0 c28 -17 59 -48 77 -77 l30 -49 0 -188 c0 -174 -2 -190 -21 -215 -47 -64 -63
-69 -214 -69 -151 0 -167 5 -214 69 -19 25 -21 41 -21 214 0 186 0 187 28 234
48 83 124 121 225 114 47 -3 75 -11 110 -33z m-1280 -80 c28 -17 59 -48 77
-77 l30 -49 0 -188 c0 -174 -2 -190 -21 -215 -47 -64 -63 -69 -214 -69 -151 0
-167 5 -214 69 -19 25 -21 41 -21 214 0 186 0 187 28 234 48 83 124 121 225
114 47 -3 75 -11 110 -33z m1920 0 c28 -17 59 -48 77 -77 l30 -49 0 -188 c0
-174 -2 -190 -21 -215 -47 -64 -63 -69 -214 -69 -151 0 -167 5 -214 69 -19 25
-21 41 -21 214 0 186 0 187 28 234 48 83 124 121 225 114 47 -3 75 -11 110
-33z m-2562 -78 c54 -32 101 -100 109 -159 3 -22 5 -342 3 -711 l-3 -670 -67
101 c-183 273 -326 696 -383 1129 -12 94 -13 130 -5 167 37 151 210 223 346
143z m3147 19 c65 -22 123 -83 143 -150 14 -48 14 -64 -1 -171 -61 -455 -200
-865 -387 -1143 l-63 -95 -3 165 c-1 91 -1 408 0 705 l3 540 28 47 c58 100
169 140 280 102z"/>
<path d="M1243 1987 c-43 -24 -157 -196 -242 -365 -151 -301 -158 -549 -20
-707 70 -79 195 -121 334 -112 172 12 277 86 337 236 19 47 22 75 22 171 0
103 -4 126 -33 215 -44 132 -122 285 -220 432 -92 138 -123 161 -178 130z
m105 -309 c109 -184 159 -319 169 -454 7 -95 -5 -140 -50 -191 -46 -53 -98
-73 -187 -73 -114 0 -187 43 -224 132 -34 81 -11 239 58 398 36 83 154 290
166 290 4 0 34 -46 68 -102z"/>
</g>
</svg>
